<?xml version="1.0" standalone="no"?>
<!DOCTYPE svg PUBLIC "-//W3C//DTD SVG 20010904//EN"
 "http://www.w3.org/TR/2001/REC-SVG-20010904/DTD/svg10.dtd">
<svg version="1.0" xmlns="http://www.w3.org/2000/svg"
 width="259.000000pt" height="58.000000pt" viewBox="0 0 259.000000 58.000000"
 preserveAspectRatio="xMidYMid meet">

<g transform="translate(0.000000,58.000000) scale(0.100000,-0.100000)"
fill="#000000" stroke="none">
<path d="M545 442 c-5 -4 -11 -50 -13 -102 -1 -52 -6 -98 -10 -102 -4 -4 -6
-26 -4 -48 5 -48 27 -49 27 -2 0 28 6 34 55 59 67 35 81 65 53 120 -10 21 -33
48 -52 60 -37 25 -41 26 -56 15z m75 -82 c18 -33 11 -67 -16 -89 -42 -33 -56
-28 -48 17 4 20 11 47 15 59 5 13 6 30 2 39 -5 14 -3 15 15 5 12 -6 26 -20 32
-31z"/>
<path d="M1251 414 c-36 -30 -49 -72 -53 -169 l-3 -70 40 1 c22 0 60 10 84 22
44 22 44 22 58 2 18 -26 45 -25 68 0 17 18 20 19 41 5 27 -17 60 -20 69 -5 10
16 22 12 28 -10 8 -33 57 -26 104 15 23 19 44 35 48 35 3 0 3 -16 -1 -35 -9
-48 9 -46 73 10 28 25 54 45 57 45 10 0 7 -40 -4 -60 -16 -31 6 -33 47 -5 46
30 50 31 72 4 15 -19 20 -20 40 -8 19 12 23 12 32 -3 12 -21 59 -24 77 -6 10
10 17 10 34 -1 18 -11 25 -10 50 9 22 16 33 19 41 11 16 -16 38 -14 59 6 18
16 19 15 34 -5 22 -31 38 -28 88 18 43 40 70 42 41 4 -16 -21 -19 -50 -7 -58
10 -6 72 35 72 48 0 4 -7 6 -15 2 -15 -5 -15 5 1 66 10 36 -20 27 -71 -21 -85
-81 -121 -61 -68 38 33 60 49 114 38 131 -16 27 -63 -48 -84 -135 -7 -27 -17
-55 -23 -62 -14 -17 -38 -16 -38 1 0 22 -19 29 -38 15 -9 -7 -5 0 11 17 15 17
27 33 27 37 0 19 -31 1 -93 -53 -70 -62 -107 -76 -107 -41 0 11 15 28 35 41
32 20 48 50 25 50 -5 0 -34 -20 -64 -45 -31 -25 -60 -45 -65 -45 -5 0 -12 13
-16 30 -4 17 -10 30 -13 30 -4 -1 -23 -14 -42 -30 -42 -36 -52 -38 -44 -6 7
28 -11 66 -30 66 -8 0 -20 -10 -29 -22 -25 -38 -58 -69 -67 -63 -9 6 7 86 21
100 5 5 9 25 8 45 0 35 0 35 -16 13 -11 -16 -25 -23 -50 -23 -39 0 -42 -23 -5
-28 12 -2 22 -7 22 -11 0 -14 -60 -89 -85 -105 -61 -40 -76 1 -18 51 21 17 35
34 31 38 -8 9 -67 -26 -93 -55 -10 -11 -31 -20 -47 -20 -33 0 -34 4 -8 37 23
29 26 63 7 63 -17 0 -47 -32 -47 -49 0 -19 -47 -61 -70 -61 -27 0 -37 27 -20
54 51 81 78 176 51 176 -23 0 -76 -109 -83 -169 -4 -33 -43 -58 -100 -67 l-48
-6 0 34 c0 45 15 58 67 58 33 0 43 4 43 16 0 14 -8 16 -49 11 l-49 -6 12 41
c14 45 36 63 70 54 27 -7 37 0 29 20 -8 23 -59 16 -92 -12z"/>
<path d="M136 410 c-32 -10 -86 -57 -86 -75 0 -8 24 -13 65 -14 40 -1 65 2 65
8 0 7 -23 11 -56 11 -63 0 -68 13 -15 44 88 51 191 -7 191 -109 0 -75 -51
-125 -126 -125 -39 0 -106 37 -101 55 2 6 28 13 58 16 54 6 54 6 -19 7 -68 2
-72 1 -63 -17 6 -10 24 -31 42 -45 37 -31 114 -36 159 -10 83 50 84 188 1 236
-36 21 -81 28 -115 18z"/>
<path d="M1060 385 c-20 -24 2 -41 24 -20 9 9 16 21 16 26 0 14 -26 10 -40 -6z"/>
<path d="M1980 355 c-13 -15 -5 -39 11 -30 5 4 14 15 19 26 8 15 7 19 -3 19
-8 0 -20 -7 -27 -15z"/>
<path d="M856 265 c-70 -57 -79 -59 -80 -16 -1 20 -8 38 -18 45 -15 9 -23 5
-47 -24 -39 -46 -41 -73 -3 -37 15 15 32 27 36 27 5 0 6 -20 3 -45 -7 -49 -3
-53 31 -29 22 15 24 15 37 -2 13 -18 15 -18 45 5 23 17 35 20 43 12 18 -18 41
-13 77 19 19 16 38 29 43 30 13 0 7 -65 -8 -88 -9 -12 -22 -37 -31 -57 -13
-33 -13 -35 5 -35 14 0 24 13 37 47 10 25 29 60 43 77 22 25 23 29 7 23 -17
-7 -18 -4 -13 43 3 27 3 50 -1 50 -4 0 -28 -20 -52 -45 -47 -48 -80 -58 -80
-25 0 23 -19 26 -40 8 -8 -7 -3 1 13 18 54 60 27 60 -47 -1z"/>
<path d="M68 273 c23 -2 59 -2 80 0 20 2 1 4 -43 4 -44 0 -61 -2 -37 -4z"/>
</g>
</svg>
